<svg width="24" height="24" viewBox="0 0 24 24" fill="none" xmlns="http://www.w3.org/2000/svg">
<path d="M17.0996 2.09998H6.89961C4.24864 2.09998 2.09961 4.24901 2.09961 6.89998V17.1C2.09961 19.7509 4.24864 21.9 6.89961 21.9H17.0996C19.7506 21.9 21.8996 19.7509 21.8996 17.1V6.89998C21.8996 4.24901 19.7506 2.09998 17.0996 2.09998Z" fill="#72D472"/>
<path d="M10.8623 16.0116C10.5857 16.0116 10.3097 15.9066 10.0985 15.6954L6.51166 12.1086C6.08986 11.6868 6.08986 11.0028 6.51166 10.581C6.93346 10.1598 7.61746 10.1598 8.03926 10.581L10.8623 13.4046L15.9617 8.30522C16.3841 7.88402 17.0681 7.88402 17.4893 8.30522C17.9111 8.72702 17.9111 9.41102 17.4893 9.83282L11.6261 15.6954C11.4149 15.906 11.1389 16.0116 10.8623 16.0116Z" fill="white"/>
</svg>
