<svg width="14" height="14" viewBox="0 0 14 14" fill="none" xmlns="http://www.w3.org/2000/svg">
<path d="M6.75 3.41667V6.75L8.75 8.75M12.75 6.75C12.75 7.53793 12.5948 8.31815 12.2933 9.0461C11.9917 9.77405 11.5498 10.4355 10.9926 10.9926C10.4355 11.5498 9.77405 11.9917 9.0461 12.2933C8.31815 12.5948 7.53793 12.75 6.75 12.75C5.96207 12.75 5.18185 12.5948 4.4539 12.2933C3.72595 11.9917 3.06451 11.5498 2.50736 10.9926C1.95021 10.4355 1.50825 9.77405 1.20672 9.0461C0.905195 8.31815 0.75 7.53793 0.75 6.75C0.75 5.1587 1.38214 3.63258 2.50736 2.50736C3.63258 1.38214 5.1587 0.75 6.75 0.75C8.3413 0.75 9.86742 1.38214 10.9926 2.50736C12.1179 3.63258 12.75 5.1587 12.75 6.75Z" stroke="#8B8B8B" stroke-width="1.5" stroke-linecap="round" stroke-linejoin="round"/>
</svg>
