<svg preserveAspectRatio="none" overflow="visible" style="display: block;" width="25.2" height="22.6674" viewBox="0 0 25.2 22.6674" fill="none" xmlns="http://www.w3.org/2000/svg">
<g id="Group">
<path id="Vector" d="M18.438 4.9462C15.82 3.2557 14.7588 1.2803 14.7588 1.2803C14.6489 1.0157 14.4704 0.7868 14.2506 0.6076C13.902 0.2415 13.3084 0 12.6336 0C11.9182 0 11.2994 0.2737 10.9627 0.6769C10.7317 0.9009 10.5399 1.1858 10.3754 1.4938C10.3754 1.4938 9.1763 3.4027 6.5737 5.0764C6.5716 5.0778 6.5709 5.0792 6.5688 5.0806C3.6022 7.1743 0 10.528 0 14.476C0 17.7415 2.3758 20.5912 5.3956 21.5698C7.1673 22.2418 9.7342 22.6674 12.6 22.6674C15.6548 22.6674 18.375 22.1851 20.1481 21.4347C23.0853 20.3182 25.2 17.654 25.2 14.4753C25.2 10.4405 21.4382 7.0266 18.4373 4.9448L18.438 4.9462Z" fill="#FFEDCC"/>
<path id="Vector_2" d="M8.7206 7.5138C9.4304 7.9247 10.563 7.2947 11.2504 6.1068C11.9378 4.9189 11.9196 3.6232 11.2098 3.2123L8.7213 7.5131L8.7206 7.5138Z" fill="#FFD382"/>
<path id="Vector_3" d="M16.4808 7.5138C15.771 7.9247 14.6384 7.2947 13.951 6.1068C13.2636 4.9189 13.2818 3.6232 13.9916 3.2123L16.4801 7.5131L16.4808 7.5138Z" fill="#FFD382"/>
</g>
</svg>
