<svg preserveAspectRatio="none" overflow="visible" style="display: block;" width="36" height="36" viewBox="0 0 36 36" fill="none" xmlns="http://www.w3.org/2000/svg">
<g id="Frame 206">
<rect width="36" height="36" rx="10" fill="#D6F3A1"/>
<path id="Vector" d="M15.156 21.6626L25.0211 11.8474C25.2539 11.6158 25.5256 11.5 25.836 11.5C26.1464 11.5 26.418 11.6158 26.6508 11.8474C26.8836 12.0791 27 12.3543 27 12.6732C27 12.9921 26.8836 13.2669 26.6508 13.4978L15.9708 24.1526C15.738 24.3842 15.4664 24.5 15.156 24.5C14.8455 24.5 14.5739 24.3842 14.3411 24.1526L9.33578 19.1726C9.10297 18.941 8.99122 18.6661 9.00054 18.348C9.00985 18.0299 9.1313 17.7547 9.36488 17.5223C9.59846 17.2899 9.87512 17.1741 10.1948 17.1748C10.5146 17.1756 10.7908 17.2914 11.0236 17.5223L15.156 21.6626Z" fill="#444444"/>
</g>
</svg>
